<?xml version="1.0" standalone="no"?>
<!DOCTYPE svg PUBLIC "-//W3C//DTD SVG 20010904//EN"
 "http://www.w3.org/TR/2001/REC-SVG-20010904/DTD/svg10.dtd">
<svg version="1.0" xmlns="http://www.w3.org/2000/svg"
 width="512.000000pt" height="512.000000pt" viewBox="0 0 512.000000 512.000000"
 preserveAspectRatio="xMidYMid meet">

<g transform="translate(0.000000,512.000000) scale(0.100000,-0.100000)"
fill="#000000" stroke="none">
<path d="M1091 4940 c-295 -61 -541 -293 -606 -573 -19 -83 -28 -212 -18 -265
l8 -43 545 -325 545 -325 105 6 c132 8 214 27 315 75 152 71 273 186 350 331
l36 69 -197 0 -197 0 -52 -40 c-68 -52 -127 -78 -211 -90 -89 -13 -449 -13
-538 0 -237 35 -406 260 -366 489 29 167 139 292 301 342 53 17 94 19 334 19
240 0 281 -2 334 -19 71 -22 136 -58 170 -95 l24 -26 199 0 c109 0 198 2 198
5 0 3 -10 25 -21 48 -95 186 -266 330 -474 398 -67 22 -86 23 -405 25 -184 2
-355 -1 -379 -6z"/>
<path d="M3328 4940 c-231 -40 -448 -203 -557 -417 -11 -23 -21 -45 -21 -48 0
-3 89 -5 198 -5 l199 0 24 26 c34 37 99 73 170 95 53 17 94 19 334 19 240 0
281 -2 334 -19 162 -50 272 -175 301 -342 40 -229 -129 -455 -365 -489 -89
-12 -449 -13 -536 0 -82 12 -149 40 -216 91 l-52 39 -196 0 -196 0 36 -69 c77
-145 198 -260 350 -331 101 -48 183 -67 315 -75 l105 -6 545 325 545 325 8 43
c10 55 1 185 -20 268 -63 256 -261 463 -528 551 -67 22 -86 23 -400 25 -181 1
-351 -1 -377 -6z"/>
<path d="M1798 4330 c-129 -69 -104 -270 40 -310 51 -14 1393 -14 1444 0 145
41 169 243 37 310 -37 19 -61 20 -761 20 -694 -1 -724 -2 -760 -20z"/>
<path d="M154 3934 l-26 -25 6 -297 c4 -163 11 -605 17 -982 8 -545 13 -689
24 -706 19 -30 344 -256 369 -257 12 0 32 3 46 7 22 6 29 1 52 -36 15 -24 56
-81 91 -128 l64 -84 -31 -66 c-40 -84 -44 -190 -9 -256 38 -72 103 -118 194
-138 22 -5 27 -13 33 -52 20 -145 113 -229 256 -229 l75 0 0 -65 c1 -106 54
-193 144 -237 51 -24 168 -29 227 -9 26 9 48 15 49 13 1 -1 10 -24 20 -51 58
-158 264 -216 406 -115 29 20 108 110 139 158 l16 24 149 -61 c83 -33 213 -81
289 -107 125 -43 146 -47 205 -43 104 8 182 56 249 154 11 16 24 42 27 55 6
25 8 26 84 21 64 -4 86 -1 129 18 93 40 153 127 156 226 l1 52 45 7 c149 22
251 133 251 276 1 58 1 59 28 59 53 0 128 30 172 69 65 56 93 120 94 206 0 39
-3 81 -7 95 -6 21 0 30 40 60 25 19 93 82 150 139 96 96 104 102 117 85 8 -11
15 -22 15 -26 0 -11 60 -27 78 -21 32 13 344 236 357 257 11 17 16 163 24 711
6 380 13 821 17 982 l6 292 -26 25 c-14 15 -37 26 -51 26 -30 0 -1227 -708
-1262 -746 -13 -14 -23 -33 -23 -42 0 -10 20 -52 45 -94 25 -43 45 -81 45 -85
0 -5 -34 -21 -75 -36 l-74 -28 -348 91 -348 92 -115 -12 c-141 -14 -358 -52
-505 -87 -149 -35 -336 -90 -349 -103 -5 -5 -19 -10 -31 -10 -45 0 -435 142
-435 158 0 4 12 30 28 59 25 50 26 55 12 80 -21 37 -1231 762 -1273 762 -17 1
-38 -9 -53 -25z m3047 -1064 c191 -49 360 -90 375 -90 15 0 72 17 126 37 85
31 101 34 112 22 7 -8 142 -229 299 -491 l286 -478 -82 -86 c-86 -92 -211
-204 -226 -204 -5 0 -149 118 -320 263 l-311 262 -334 208 c-184 114 -351 215
-372 224 -26 11 -67 17 -124 17 -73 0 -105 -6 -220 -42 -104 -32 -140 -49
-159 -70 -13 -15 -78 -85 -145 -156 -137 -147 -169 -166 -270 -167 -96 -1
-146 32 -146 96 0 22 282 541 309 568 35 35 659 166 835 176 11 1 176 -39 367
-89z m-1765 19 c38 -17 134 -53 214 -80 80 -27 146 -52 148 -57 1 -4 -51 -102
-116 -218 -129 -228 -142 -257 -142 -317 0 -151 116 -249 295 -249 156 0 226
41 400 233 70 76 128 139 130 139 1 0 54 16 116 35 125 38 163 42 214 21 19
-8 179 -105 357 -215 l323 -201 320 -270 c179 -152 328 -285 338 -303 50 -92
-25 -205 -128 -194 -28 3 -157 69 -420 212 -405 221 -430 231 -466 186 -22
-26 -24 -68 -6 -92 7 -9 143 -87 302 -173 379 -206 435 -250 435 -339 0 -51
-23 -93 -62 -113 -68 -35 -81 -30 -479 185 -205 110 -381 201 -390 201 -9 0
-28 -9 -43 -21 -20 -16 -26 -29 -26 -59 0 -20 6 -42 13 -48 7 -6 143 -81 302
-167 301 -162 364 -207 386 -272 23 -70 -31 -143 -106 -143 -27 0 -135 45
-393 165 -195 91 -363 165 -372 165 -10 0 -29 -9 -44 -21 -29 -23 -36 -73 -13
-101 6 -9 140 -76 297 -148 157 -73 287 -134 289 -135 10 -10 -45 -99 -75
-121 -66 -51 -112 -44 -384 58 -201 76 -251 99 -241 112 20 24 41 129 34 170
-19 122 -112 217 -228 233 l-45 6 0 42 c0 144 -98 254 -242 271 l-53 6 4 80
c4 94 -14 151 -65 208 -76 84 -228 110 -334 58 l-52 -26 -57 58 c-44 45 -69
62 -111 74 -118 35 -192 13 -299 -89 l-78 -75 -55 78 c-31 42 -72 103 -93 135
l-38 57 327 545 c180 300 331 545 335 545 5 0 39 -14 77 -31z m-189 -1324 c30
-20 56 -79 47 -107 -3 -12 -43 -67 -88 -122 -45 -56 -100 -127 -121 -158 -30
-43 -48 -59 -71 -63 -65 -13 -134 43 -134 107 1 61 70 182 159 280 80 88 142
106 208 63z m426 -87 c56 -22 75 -123 38 -197 -27 -53 -188 -250 -279 -344
-87 -88 -137 -113 -204 -104 -75 10 -116 86 -85 158 18 42 115 172 260 347 61
72 110 132 111 132 1 0 19 7 41 15 41 15 67 13 118 -7z m282 -374 c59 -28 81
-107 50 -180 -30 -73 -267 -353 -330 -389 -54 -32 -131 -34 -168 -5 -37 29
-51 78 -37 132 27 98 156 279 269 377 92 80 149 97 216 65z m275 -319 c42 -22
60 -53 60 -105 0 -40 -8 -59 -67 -146 -126 -185 -157 -214 -229 -214 -28 0
-44 8 -70 34 -41 41 -44 78 -13 162 24 63 168 251 209 271 34 17 75 16 110 -2z"/>
</g>
</svg>
